<svg width="24" height="24" viewBox="0 0 24 24" fill="none" xmlns="http://www.w3.org/2000/svg">
<rect width="24" height="24" fill="white" fill-opacity="0.01"/>
<path fill-rule="evenodd" clip-rule="evenodd" d="M9.00519 10.995L13.5982 6.40199C13.6898 6.30854 13.799 6.23416 13.9195 6.18318C14.04 6.13219 14.1694 6.10559 14.3003 6.10493C14.4311 6.10427 14.5608 6.12956 14.6818 6.17932C14.8028 6.22909 14.9128 6.30236 15.0053 6.39488C15.0978 6.48741 15.1711 6.59736 15.2209 6.71837C15.2706 6.83939 15.2959 6.96907 15.2952 7.09992C15.2946 7.23077 15.268 7.36019 15.217 7.48069C15.166 7.6012 15.0916 7.7104 14.9982 7.80199L11.0982 11.702L14.9982 15.602C15.1808 15.7883 15.2824 16.0391 15.2811 16.2999C15.2798 16.5607 15.1756 16.8105 14.9912 16.995C14.8067 17.1794 14.5569 17.2836 14.2961 17.2849C14.0353 17.2862 13.7845 17.1846 13.5982 17.002L9.00519 12.41C8.81772 12.2225 8.7124 11.9682 8.7124 11.703C8.7124 11.4378 8.81772 11.1835 9.00519 10.996V10.995Z" fill="#42526E"/>
</svg>
