<svg width="20" height="20" viewBox="0 0 20 20" fill="none" xmlns="http://www.w3.org/2000/svg">
<path d="M17.7595 2.24065C17.6023 2.08357 17.4061 1.97122 17.1911 1.9152C16.976 1.85917 16.7499 1.86148 16.5361 1.9219H16.5243L1.52903 6.4719C1.28494 6.5421 1.06802 6.68499 0.907157 6.88155C0.746298 7.07811 0.649134 7.31901 0.628603 7.57217C0.608072 7.82533 0.665148 8.07873 0.792232 8.29864C0.919316 8.51855 1.11038 8.69453 1.33997 8.80315L8.02903 11.9711L11.197 18.6602C11.297 18.8744 11.4562 19.0555 11.6559 19.1822C11.8555 19.3088 12.0872 19.3758 12.3236 19.375C12.3595 19.375 12.3954 19.3735 12.4314 19.3703C12.6836 19.3499 12.9236 19.2528 13.1191 19.0921C13.3146 18.9314 13.4563 18.7147 13.5251 18.4711L18.072 3.47581C18.072 3.4719 18.072 3.46799 18.072 3.46409C18.1332 3.25078 18.1365 3.02502 18.0816 2.81001C18.0267 2.595 17.9155 2.39848 17.7595 2.24065ZM12.3306 18.1133L12.3267 18.1242L9.25169 11.6328L12.9423 7.94143C13.0546 7.82327 13.1162 7.66592 13.1142 7.50295C13.1121 7.33997 13.0464 7.18426 12.9311 7.06901C12.8159 6.95376 12.6602 6.88809 12.4972 6.886C12.3342 6.88391 12.1769 6.94557 12.0587 7.05784L8.36731 10.7485L1.87513 7.67346H1.88607L16.8751 3.12502L12.3306 18.1133Z" fill="white"/>
</svg>
